<svg width="24" height="24" viewBox="0 0 24 24" fill="none" xmlns="http://www.w3.org/2000/svg">
<path d="M3.56299 4.063C3.43038 4.063 3.3032 4.01032 3.20943 3.91655C3.11567 3.82278 3.06299 3.6956 3.06299 3.563C3.06299 3.43039 3.11567 3.30321 3.20943 3.20944C3.3032 3.11567 3.43038 3.063 3.56299 3.063L20.437 3.062C20.5696 3.062 20.6968 3.11467 20.7905 3.20844C20.8843 3.30221 20.937 3.42939 20.937 3.562C20.937 3.6946 20.8843 3.82178 20.7905 3.91555C20.6968 4.00932 20.5696 4.062 20.437 4.062L3.56299 4.063ZM3.56299 12.501C3.43038 12.501 3.3032 12.4483 3.20943 12.3545C3.11567 12.2608 3.06299 12.1336 3.06299 12.001C3.06299 11.8684 3.11567 11.7412 3.20943 11.6474C3.3032 11.5537 3.43038 11.501 3.56299 11.501L20.437 11.499C20.5696 11.499 20.6968 11.5517 20.7905 11.6454C20.8843 11.7392 20.937 11.8664 20.937 11.999C20.937 12.1316 20.8843 12.2588 20.7905 12.3525C20.6968 12.4463 20.5696 12.499 20.437 12.499L3.56299 12.501ZM3.56299 20.939C3.43038 20.939 3.3032 20.8863 3.20943 20.7925C3.11567 20.6988 3.06299 20.5716 3.06299 20.439C3.06299 20.3064 3.11567 20.1792 3.20943 20.0854C3.3032 19.9917 3.43038 19.939 3.56299 19.939L20.437 19.937C20.5696 19.937 20.6968 19.9897 20.7905 20.0834C20.8843 20.1772 20.937 20.3044 20.937 20.437C20.937 20.5696 20.8843 20.6968 20.7905 20.7906C20.6968 20.8843 20.5696 20.937 20.437 20.937L3.56299 20.939Z" fill="black"/>
</svg>
