<svg width="38" height="38" viewBox="0 0 38 38" fill="none" xmlns="http://www.w3.org/2000/svg">
<path d="M34.8334 19.0001C34.8334 27.7448 27.7448 34.8334 19.0001 34.8334C10.2553 34.8334 3.16675 27.7448 3.16675 19.0001C3.16675 10.2553 10.2553 3.16675 19.0001 3.16675C27.7448 3.16675 34.8334 10.2553 34.8334 19.0001Z" stroke="black" stroke-width="1.5" stroke-linecap="round" stroke-linejoin="round"/>
<path d="M10.2917 25.3176C10.9213 26.2243 11.6847 27.0304 12.5559 27.7084M25.3746 10.2917C26.2755 10.9884 27.064 11.8307 27.7084 12.7823M22.9584 19.0001C22.9584 17.9503 22.5414 16.9434 21.799 16.2011C21.0567 15.4588 20.0499 15.0417 19.0001 15.0417C17.9503 15.0417 16.9434 15.4588 16.2011 16.2011C15.4588 16.9434 15.0417 17.9503 15.0417 19.0001C15.0417 20.0499 15.4588 21.0567 16.2011 21.799C16.9434 22.5414 17.9503 22.9584 19.0001 22.9584C20.0499 22.9584 21.0567 22.5414 21.799 21.799C22.5414 21.0567 22.9584 20.0499 22.9584 19.0001Z" stroke="black" stroke-width="1.5" stroke-linecap="round" stroke-linejoin="round"/>
</svg>
