<svg width="51" height="51" viewBox="0 0 51 51" fill="none" xmlns="http://www.w3.org/2000/svg">
<path d="M31.875 42.3363L19.125 37.8738L10.7142 41.1251C10.1702 41.3277 9.66521 41.2689 9.19912 40.9487C8.73304 40.6285 8.5 40.178 8.5 39.5972V13.6084C8.5 13.2288 8.59208 12.8824 8.77625 12.5693C8.96042 12.2562 9.22817 12.0388 9.5795 11.9169L19.125 8.66357L31.875 13.1261L40.2858 9.87482C40.8298 9.67224 41.3348 9.71049 41.8009 9.98957C42.267 10.2687 42.5 10.6852 42.5 11.2391V37.5551C42.5 37.9617 42.3874 38.3144 42.1621 38.6133C41.9383 38.9137 41.6365 39.1247 41.2569 39.2466L31.875 42.3363ZM30.8125 39.7438V14.8813L20.1875 11.1732V36.0357L30.8125 39.7438ZM32.9375 39.7438L40.375 37.2937V12.1124L32.9375 14.8834V39.7438ZM10.625 38.8874L18.0625 36.0357V11.1732L10.625 13.7062V38.8874Z" fill="black"/>
</svg>
