<svg width="13" height="13" viewBox="0 0 13 13" fill="none" xmlns="http://www.w3.org/2000/svg">
<path d="M6.05473 10.5999C6.10442 10.6721 6.17092 10.7311 6.24848 10.7718C6.32604 10.8126 6.41236 10.8339 6.49998 10.8339C6.58761 10.8339 6.67392 10.8126 6.75148 10.7718C6.82905 10.7311 6.89554 10.6721 6.94523 10.5999L11.8202 3.55822C11.8767 3.477 11.9097 3.38187 11.9159 3.28316C11.9221 3.18446 11.9011 3.08595 11.8552 2.99835C11.8093 2.91075 11.7402 2.83739 11.6556 2.78627C11.5709 2.73514 11.4739 2.70819 11.375 2.70834H1.62498C1.52631 2.70875 1.42962 2.73605 1.34531 2.7873C1.26099 2.83855 1.19224 2.91181 1.14646 2.99922C1.10067 3.08662 1.07957 3.18485 1.08543 3.28334C1.09129 3.38183 1.1239 3.47687 1.17973 3.55822L6.05473 10.5999Z" fill="black"/>
</svg>
