<svg width="64" height="59" viewBox="0 0 64 59" fill="none" xmlns="http://www.w3.org/2000/svg">
<g clip-path="url(#clip0_5_659)">
<path d="M50.8077 38.3831H58.8292C58.7231 41.9242 56.8681 44.0751 53.3956 43.8282C49.9131 43.5814 48.5079 45.0371 47.0977 47.9385C44.3481 53.6053 39.9911 57.7408 33.4658 58.8439C30.0843 59.4182 27.0718 58.3956 24.9641 55.6151C24.398 54.8696 24.5042 53.6204 24.302 52.608C25.1461 52.5979 25.9902 52.5828 26.8343 52.5777C27.7491 52.5727 28.7297 52.7943 29.5637 52.5374C33.7893 51.2379 36.544 48.4624 37.7318 44.1607C31.8837 42.2667 31.4794 41.8789 31.8584 38.1917C33.8904 38.1917 35.9728 38.2975 38.035 38.1363C38.7932 38.0758 39.8648 37.562 40.168 36.9525C42.6801 31.8398 45.9858 27.3518 50.4388 23.6595C45.6673 21.7303 39.0965 23.1961 36.0031 27.2611C34.2644 29.5479 33.2889 32.404 31.9242 34.978C31.4844 35.8091 30.8981 36.5596 30.3775 37.3505C29.5334 36.7611 28.2394 36.3481 27.9261 35.5472C27.082 33.4215 26.6018 31.1397 26.1064 28.8931C25.9396 28.1426 26.157 27.3115 26.1924 26.5156C25.9902 26.4199 25.788 26.3191 25.5808 26.2234C25.0905 26.8531 24.58 27.4626 24.12 28.1124C22.0426 31.0339 20.2988 34.2778 17.8322 36.8165C14.6024 40.141 10.3162 41.5011 5.59025 40.9671C3.03267 40.68 1.25349 39.1941 0.192047 36.9374C-0.0859504 36.3481 -0.0303509 35.4263 0.247646 34.8319C0.368954 34.57 1.45567 34.5901 2.04705 34.7211C7.12681 35.8796 12.4896 31.9003 13.1113 26.294C12.3329 26.1378 11.4383 26.1529 10.766 25.7751C9.64395 25.1455 8.32473 24.4655 7.69292 23.4379C6.52027 21.5238 7.27845 20.2947 9.51253 20.597C13.6218 21.151 15.8054 19.7104 17.7362 15.8721C19.6266 12.1144 23.0737 9.13243 25.7223 5.95399C17.0639 4.04995 11.0339 7.34928 8.01135 15.9527C7.93048 16.1895 7.88499 16.4514 7.75357 16.6579C7.12681 17.6804 6.47984 18.6828 5.83792 19.6953C4.90283 18.7181 3.63416 17.897 3.09333 16.7385C-0.550964 9.02161 5.01403 0.141134 13.546 0.0403909C21.1227 -0.0502776 28.7044 0.0252795 36.2862 0.0957994C37.7065 0.110911 39.5463 -0.266875 39.8749 1.91924C40.1832 4.00966 38.8791 4.89619 37.1 5.4805C34.6131 6.29148 32.5459 7.79255 31.3025 10.0844C29.5637 13.2981 28.0474 16.6277 26.3794 20.0328C28.3961 20.7833 29.6699 20.6473 31.2873 19.8212C33.4557 18.7131 35.988 17.8366 38.399 17.7459C45.4651 17.4941 52.5465 17.6754 59.6228 17.6956C60.0423 17.6956 60.4669 17.7056 60.8864 17.7359C62.2309 17.8366 64.0252 17.7963 64.005 19.4888C63.9949 20.6624 63.0497 22.5413 62.0944 22.8788C54.917 25.4024 53.2592 31.7341 50.8179 38.3831H50.8077Z" fill="white"/>
</g>
<defs>
<clipPath id="clip0_5_659">
<rect width="64" height="59" fill="white"/>
</clipPath>
</defs>
</svg>
