<svg width="47" height="43" viewBox="0 0 47 43" fill="none" xmlns="http://www.w3.org/2000/svg">
<g clip-path="url(#clip0_5_372)">
<path d="M37.312 27.974H43.2027C43.1248 30.5548 41.7625 32.1224 39.2125 31.9425C36.655 31.7627 35.6231 32.8236 34.5874 34.9382C32.5682 39.0682 29.3685 42.0822 24.5765 42.8862C22.0932 43.3047 19.8809 42.5595 18.333 40.533C17.9173 39.9897 17.9953 39.0792 17.8468 38.3413C18.4667 38.334 19.0866 38.323 19.7064 38.3193C20.3783 38.3156 21.0984 38.4772 21.7109 38.2899C24.814 37.3428 26.837 35.32 27.7093 32.1848C23.4146 30.8045 23.1177 30.5218 23.3961 27.8345C24.8883 27.8345 26.4176 27.9116 27.932 27.7942C28.4888 27.7501 29.2757 27.3756 29.4984 26.9314C31.3432 23.2052 33.7708 19.9343 37.041 17.2433C33.537 15.8373 28.7115 16.9056 26.4398 19.8682C25.1629 21.5349 24.4465 23.6164 23.4443 25.4924C23.1214 26.0981 22.6908 26.6451 22.3085 27.2215C21.6886 26.7919 20.7384 26.4909 20.5082 25.9072C19.8883 24.358 19.5357 22.695 19.1719 21.0576C19.0494 20.5106 19.2091 19.9049 19.235 19.3249C19.0866 19.2551 18.9381 19.1817 18.7859 19.1119C18.4258 19.5708 18.0509 20.015 17.7132 20.4886C16.1876 22.6179 14.907 24.9821 13.0956 26.8323C10.7237 29.2553 7.57598 30.2465 4.10536 29.8573C2.22714 29.6481 0.920555 28.5651 0.141057 26.9204C-0.0630969 26.4909 -0.0222661 25.8191 0.181888 25.3859C0.270974 25.195 1.06903 25.2097 1.50332 25.3051C5.23378 26.1495 9.1721 23.2493 9.62866 19.1633C9.05703 19.0495 8.40002 19.0605 7.90634 18.7852C7.0823 18.3263 6.11349 17.8307 5.64951 17.0818C4.78835 15.6868 5.34513 14.791 6.98579 15.0113C10.0036 15.4151 11.6071 14.3651 13.025 11.5677C14.4133 8.82908 16.9448 6.65576 18.8898 4.33928C12.5314 2.95159 8.10307 5.35618 5.88336 11.6265C5.82397 11.799 5.79056 11.9899 5.69405 12.1404C5.23378 12.8857 4.75865 13.6162 4.28724 14.3541C3.60054 13.6419 2.66886 13.0435 2.27168 12.1992C-0.404591 6.575 3.6822 0.102789 9.94788 0.0293658C15.512 -0.0367146 21.0799 0.0183524 26.6477 0.0697483C27.6907 0.0807617 29.0419 -0.194573 29.2831 1.3987C29.5096 2.92222 28.5519 3.56834 27.2453 3.99419C25.4191 4.58524 23.9009 5.67924 22.9878 7.34961C21.7109 9.69179 20.5973 12.1184 19.3724 14.6001C20.8534 15.1471 21.7888 15.048 22.9766 14.4459C24.569 13.6383 26.4287 12.9995 28.1993 12.9334C33.3885 12.7498 38.5889 12.882 43.7855 12.8967C44.0936 12.8967 44.4054 12.904 44.7135 12.9261C45.7008 12.9995 47.0186 12.9701 47.0037 14.2036C46.9963 15.059 46.3022 16.4283 45.6006 16.6743C40.3297 18.5135 39.1122 23.1281 37.3194 27.974H37.312Z" fill="black"/>
</g>
<defs>
<clipPath id="clip0_5_372">
<rect width="47" height="43" fill="white"/>
</clipPath>
</defs>
</svg>
