<svg width="173" height="47" viewBox="0 0 173 47" fill="none" xmlns="http://www.w3.org/2000/svg">
<g clip-path="url(#clip0_5_411)">
<path d="M68.9206 33.0091C69.9753 32.9304 70.6322 32.8842 71.5158 32.8194V25.0104H80.8283V46.5452H71.5575V38.4078C70.6461 38.3292 69.9938 38.2736 69.0686 38.195V46.4897H59.7654V25.0382H68.9252V33.0091H68.9206Z" fill="black"/>
<path d="M139.853 46.4574C139.853 42.0718 139.853 37.9221 139.853 33.7724C139.853 33.2358 139.969 32.6621 139.821 32.1625C139.659 31.6166 139.266 31.1401 138.97 30.6313C138.651 31.1309 138.063 31.6213 138.049 32.1255C137.971 35.8958 138.003 39.6708 137.998 43.4411C137.998 44.3617 137.998 45.2777 137.998 46.3787H128.908V24.7514C131.61 24.7514 134.265 24.7375 136.92 24.7514C139.229 24.7653 141.537 24.8208 143.846 24.8439C147.551 24.8809 149.726 26.3151 150.346 29.1324C151.09 32.5234 149.823 34.9521 146.487 36.5574C146.293 36.6499 146.131 36.8211 145.817 37.0616C147.556 40.1195 149.286 43.1589 151.155 46.4435H139.849L139.853 46.4574Z" fill="black"/>
<path d="M105.722 24.881H126.239V30.0021H118.749C118.698 31.0014 118.661 31.723 118.615 32.7269H126.225V38.01H118.809V40.9337H126.262V46.078H105.726V24.8717L105.722 24.881Z" fill="black"/>
<path d="M13.0458 13.7272V21.8045H0.0231934V0.547302H20.5264V5.7101H13.18C13.1384 6.65846 13.106 7.37089 13.0597 8.35627H20.5125V13.7272H13.0458Z" fill="black"/>
<path d="M0 24.8763H20.5633V30.0067H13.1753V32.7176H20.5217V38.0562H13.0967V46.0965H0V24.8763Z" fill="black"/>
<path d="M45.2068 31.6814C45.2068 33.9482 45.1652 36.1734 45.2207 38.3986C45.2577 39.9067 45.3225 39.9067 47.3858 39.7031C47.4922 38.7548 47.5986 37.7833 47.7235 36.6499H57.258V46.5314C52.6411 46.5314 48.0612 47.0541 43.6617 46.3926C38.8459 45.6663 35.6168 40.5682 35.7602 35.5303C35.9082 30.4832 39.5259 26.0143 44.2816 25.0151C49.1761 23.9834 53.9965 26.3197 56.2125 30.8533C56.6381 31.723 56.8601 32.6945 57.2626 33.8742H47.8299C47.1498 33.2543 48.0704 30.5757 45.2022 31.686L45.2068 31.6814Z" fill="black"/>
<path d="M172.523 33.2219C174.281 38.4402 171.015 44.3848 165.57 46.2446C160.19 48.0858 153.894 45.4489 152.261 40.4572H160.736C161.393 38.9398 160.99 38.3662 159.584 38.3847C157.271 38.4078 154.958 38.3569 152.649 38.3986C151.544 38.4171 151.003 38.0886 150.864 36.8719C150.285 31.7785 153.639 26.699 158.7 25.1631C163.854 23.5949 169.53 25.9958 171.811 30.7145C171.899 30.8996 171.894 31.1355 171.987 31.6536C169.526 31.6536 167.162 31.5935 164.807 31.6953C164.215 31.7184 163.641 32.2504 163.058 32.5511C163.637 32.7778 164.21 33.1803 164.793 33.1941C167.398 33.2635 170.002 33.2265 172.523 33.2265V33.2219Z" fill="black"/>
<path d="M87.032 46.5175V30.9042C85.5424 30.7793 84.2748 30.6729 82.8777 30.5526V25.0428H103.714V30.5202C102.692 30.6405 101.674 30.7654 100.448 30.9134V46.5221H87.032V46.5175Z" fill="black"/>
<path d="M33.0447 25.0613V46.4712H23.9312V25.0613H33.0447Z" fill="black"/>
<path d="M32.767 0.209595V21.5085C27.9142 21.7351 23.4268 17.2246 22.9364 11.7426C22.4276 6.06632 26.6605 0.982164 32.767 0.209595Z" fill="black"/>
<path d="M56.7537 21.5408C51.7112 21.6149 47.3256 17.035 46.9648 11.4419C46.5993 5.84428 50.9571 0.797133 56.7537 0.260498V21.5408Z" fill="black"/>
<path d="M35.3762 0.167969C41.529 1.15334 45.341 5.70549 45.068 11.553C44.8228 16.8869 40.6038 21.3373 35.3762 21.6195V0.167969Z" fill="black"/>
<path d="M59.363 21.6241V0.325256C64.8219 0.551938 69.0548 5.17348 69.1011 10.859C69.1427 16.5677 64.9283 21.3373 59.363 21.6287V21.6241Z" fill="black"/>
</g>
<defs>
<clipPath id="clip0_5_411">
<rect width="173" height="46.6641" fill="white" transform="translate(0 0.167969)"/>
</clipPath>
</defs>
</svg>
