<svg width="373" height="46" viewBox="0 0 373 46" fill="none" xmlns="http://www.w3.org/2000/svg">
<g clip-path="url(#clip0_5_391)">
<path d="M48.7001 0.209961C58.4001 0.659961 65.7001 4.92996 70.0901 13.95C70.7801 15.37 72.3301 16.38 73.4801 17.59C74.6601 16.45 76.2701 15.53 76.9401 14.15C82.0501 3.50996 92.8601 -1.77004 104.31 0.989961C114.36 3.41996 121.73 13 121.55 23.39C121.35 34.33 113.52 43.2 102.04 45.47C90.5001 47.75 78.4901 39.58 75.7201 27.7C75.4001 26.32 74.2701 25.13 73.5201 23.85C72.8401 25.14 71.8501 26.37 71.5101 27.75C69.0201 37.97 60.0401 45.41 49.5701 45.77C39.2101 46.13 30.1101 39.68 26.7301 29.71C25.9201 27.3 24.3701 25.08 23.9301 22.63C23.6401 21.05 24.6001 19.15 25.2801 17.51C25.8201 16.21 26.9401 15.15 27.5601 13.86C31.8101 5.03996 38.9801 0.779961 48.7001 0.209961ZM64.4301 24.48C64.4701 14.53 58.5101 7.67996 49.7601 6.94996C42.9301 6.38996 35.8801 11.32 35.1101 17.7H61.3401C59.9701 20.32 58.9501 22.28 57.8001 24.47H64.4201L64.4301 24.48ZM107.47 24.43H113.51C114.65 15.88 109.61 9.07996 101.07 7.23996C93.9801 5.71996 86.5501 10.09 84.2401 17.67H110.93C109.61 20.26 108.67 22.1 107.48 24.43H107.47ZM62.1501 30.86H45.9101C47.3401 28.01 48.2801 26.16 49.3601 24.01H33.4701C33.8801 31.35 37.9001 36.36 44.7101 38.3C51.3201 40.17 57.3701 37.83 62.1401 30.86H62.1501ZM83.1401 23.99C83.2901 31.79 88.8701 37.84 96.6301 38.87C102.82 39.69 109.27 36.14 110.9 30.56H95.7501C96.9201 28.11 97.8101 26.24 98.8901 23.99H83.1401Z" fill="black"/>
<path d="M324 26.6701V44.3001H317.24V30.9101H297.54C298.84 28.3701 299.78 26.5401 300.99 24.1701H294.99V38.0601H311.69V43.8301H287.91V24.2301C286.02 23.9201 284.62 23.7001 283.05 23.4501V18.0501C284.49 17.7701 285.89 17.5101 287.8 17.1401V1.48011H311.51C311.59 3.22011 311.66 4.79011 311.76 7.07011H295.01V17.4601H312.86C311.54 20.0901 310.55 22.0501 309.35 24.4401H317.05V0.860107C323.56 1.42011 329.51 1.38011 335.2 2.58011C339.95 3.58011 341.89 7.74011 342.03 12.5101C342.17 17.3101 340.99 21.4601 336.21 23.7201C335.17 24.2101 334.11 24.6601 332.77 25.2601C337.42 31.5301 341.93 37.6001 346.63 43.9401C341.7 45.3801 338.58 44.3301 335.98 40.3501C332.73 35.3801 328.86 30.8301 325.26 26.0901C324.84 26.2801 324.42 26.4801 324 26.6701ZM324.32 19.4601C328.56 20.0901 332.34 20.0201 334.06 16.3901C334.91 14.5901 334.52 11.2001 333.28 9.64011C331.12 6.92011 327.66 6.59011 324.32 8.01011V19.4501V19.4601Z" fill="black"/>
<path d="M211.06 8.00991C209.29 9.33991 207.84 10.4399 206.42 11.5099C193.49 3.89991 183.44 5.91991 179.75 17.3499H209.99C208.55 20.0899 207.54 22.0199 206.15 24.6699H216.77C216.73 37.1899 204.11 47.3999 191.63 45.6199C181.27 44.1399 174.11 37.6199 171.45 27.4599C171.07 26.0099 169.81 24.8099 169.29 23.3799C168.54 21.2899 167.59 19.1999 170.37 17.4299C171.72 16.5699 172.54 14.6899 173.33 13.1399C180.57 -1.13009 200.41 -4.10009 211.04 8.00991H211.06ZM178.65 24.0599C178.99 32.2199 184.23 38.1199 191.93 39.2499C198.74 40.2499 204.97 36.8699 207.2 30.5999H194.73C196.06 28.1699 197.06 26.3499 198.31 24.0599H178.65Z" fill="black"/>
<path d="M253.56 44.38H246.95V23.69H225.96V44.24H218.96V1.57004H225.67V16.78H246.9V1.54004H253.55V44.38H253.56Z" fill="black"/>
<path d="M371.42 6.82005C368.66 9.28005 366.47 10.61 363.09 7.85005C359.88 5.23005 355.71 6.26005 353.97 9.25005C352.12 12.42 353.41 15.36 357.7 17.55C360.36 18.91 363.16 20.01 365.74 21.51C371.06 24.59 373.55 29.58 372.62 34.77C371.6 40.52 367.75 44.33 361.67 45.62C353.89 47.26 346.63 43.18 344.95 35.85C346.42 35.11 347.99 34.32 349.56 33.52C349.48 34.02 349.4 34.52 349.31 35.02C352.63 36.31 355.87 38.13 359.31 38.72C361.99 39.18 364.43 37.48 365.06 34.32C365.65 31.37 364.75 29 362.09 27.56C359.61 26.22 356.92 25.26 354.48 23.84C349.27 20.82 344.7 17.32 345.73 10.19C346.42 5.42005 349.57 1.88005 354.6 0.580047C361.26 -1.14995 367.23 0.980047 371.43 6.82005H371.42Z" fill="black"/>
<path d="M139.48 43.9899H132.56V1.66992H156.14C156.28 3.05992 156.43 4.61992 156.66 6.88992H139.76V17.3599H156.16V23.5899H139.48V43.9899Z" fill="black"/>
<path d="M21.4 17.4701V23.5801H6.72V43.9501H0V1.58008H23.46V7.06008H6.93V17.4701H21.4Z" fill="black"/>
<path d="M267.08 44.2V7.38995C263.1 7.18995 259.68 7.02995 255.89 6.83995C255.81 5.01995 255.73 3.43995 255.64 1.44995H285.43C285.51 3.11995 285.59 4.69995 285.7 6.79995C282.02 6.98995 278.62 7.16995 274.68 7.36995V44.2099H267.08V44.2Z" fill="black"/>
<path d="M167.38 44.36H161V1.48999H167.38V44.36Z" fill="black"/>
</g>
<defs>
<clipPath id="clip0_5_391">
<rect width="372.8" height="45.98" fill="white"/>
</clipPath>
</defs>
</svg>
