<?xml version="1.0" encoding="UTF-8"?>
<svg xmlns="http://www.w3.org/2000/svg" version="1.1" viewBox="0 0 515 600">
  <defs>
    <style>
      .cls-1 {
        fill: #56e231;
      }
    </style>
  </defs>
  <!-- Generator: Adobe Illustrator 28.7.3, SVG Export Plug-In . SVG Version: 1.2.0 Build 164)  -->
  <g>
    <g id="Capa_1">
      <g>
        <g>
          <polygon class="cls-1" points="515 140.8 515 149.9 507 149.9 450.6 84.2 450.6 75 458.5 75 515 140.8"/>
          <polygon class="cls-1" points="450.6 138.3 450.6 149.9 440.6 149.9 386.2 86.7 386.2 75 396.2 75 450.6 138.3"/>
          <polygon class="cls-1" points="386.2 135.9 386.2 149.9 374.1 149.9 321.9 89.1 321.9 75 333.9 75 386.2 135.9"/>
          <polygon class="cls-1" points="321.8 133.4 321.8 149.9 307.6 149.9 257.5 91.6 257.5 75 271.7 75 321.8 133.4"/>
          <polygon class="cls-1" points="257.5 131 257.5 149.9 241.2 149.9 193.1 94 193.1 75 209.4 75 257.5 131"/>
          <polygon class="cls-1" points="193.1 128.5 193.1 149.9 174.7 149.9 128.7 96.4 128.7 75 147.1 75 193.1 128.5"/>
          <polygon class="cls-1" points="128.7 126.1 128.7 149.9 108.2 149.9 64.4 98.9 64.4 75 84.9 75 128.7 126.1"/>
          <polygon class="cls-1" points="64.3 123.6 64.3 149.9 41.7 149.9 0 101.3 0 75 22.6 75 64.3 123.6"/>
        </g>
        <g>
          <polygon class="cls-1" points="515 416.5 515 449.6 486.1 449.6 450.6 408.2 450.6 374.7 479 374.7 515 416.5"/>
          <polygon class="cls-1" points="450.6 418.6 450.6 449.7 423.6 449.7 386.2 406.2 386.2 374.7 412.9 374.7 450.6 418.6"/>
          <polygon class="cls-1" points="386.2 420.7 386.2 449.7 361 449.7 321.9 404.2 321.9 374.8 346.8 374.8 386.2 420.7"/>
          <polygon class="cls-1" points="321.8 422.7 321.8 449.8 298.4 449.8 257.5 402.1 257.5 374.9 280.7 374.9 321.8 422.7"/>
          <polygon class="cls-1" points="257.5 424.8 257.5 449.8 235.8 449.8 193.1 400.1 193.1 374.9 214.6 374.9 257.5 424.8"/>
          <polygon class="cls-1" points="193.1 426.9 193.1 449.9 173.2 449.9 128.7 398.1 128.7 375 148.5 375 193.1 426.9"/>
          <polygon class="cls-1" points="128.7 429 128.7 449.9 110.7 449.9 64.4 396 64.4 375 82.4 375 128.7 429"/>
          <polygon class="cls-1" points="64.3 431 64.3 450 48.1 450 0 394 0 375.1 16.3 375.1 64.3 431"/>
        </g>
        <polygon class="cls-1" points="64.3 584.7 64.3 600 51.2 600 0 540.3 0 525.1 13.1 525.1 64.3 584.7"/>
        <polygon class="cls-1" points="128.7 580.5 128.7 600 112 600 64.4 544.6 64.4 525.1 81.1 525.1 128.7 580.5"/>
        <polygon class="cls-1" points="193.1 576.2 193.1 600 172.7 600 128.7 548.8 128.7 525.1 149.1 525.1 193.1 576.2"/>
        <polygon class="cls-1" points="257.4 572 257.4 600 233.4 600 193.1 553.1 193.1 525.1 217.2 525.1 257.4 572"/>
        <polygon class="cls-1" points="321.8 567.7 321.8 600 294.1 600 257.5 557.3 257.5 525.1 285.2 525.1 321.8 567.7"/>
        <polygon class="cls-1" points="386.2 563.5 386.2 600 354.8 600 321.8 561.6 321.8 525.1 353.2 525.1 386.2 563.5"/>
        <polygon class="cls-1" points="450.5 559.2 450.5 600 415.5 600 386.2 565.8 386.2 525.1 421.2 525.1 450.5 559.2"/>
        <g>
          <polygon class="cls-1" points="64.3 46.8 64.3 74.9 40.2 74.9 0 28.2 0 0 24.2 0 64.3 46.8"/>
          <polygon class="cls-1" points="128.7 50.3 128.7 74.9 107.6 74.9 64.4 24.6 64.4 0 85.5 0 128.7 50.3"/>
          <polygon class="cls-1" points="193.1 53.8 193.1 74.9 175 74.9 128.7 21.1 128.7 0 146.9 0 193.1 53.8"/>
          <polygon class="cls-1" points="257.4 57.4 257.4 74.9 242.4 74.9 193.1 17.6 193.1 0 208.2 0 257.4 57.4"/>
          <polygon class="cls-1" points="321.8 60.9 321.8 74.9 309.8 74.9 257.5 14 257.5 0 269.5 0 321.8 60.9"/>
          <polygon class="cls-1" points="386.2 64.4 386.2 74.9 377.2 74.9 321.8 10.5 321.8 0 330.9 0 386.2 64.4"/>
          <polygon class="cls-1" points="450.5 68 450.5 74.9 444.6 74.9 386.2 7 386.2 0 392.2 0 450.5 68"/>
          <polygon class="cls-1" points="514.9 71.5 514.9 74.9 512 74.9 450.6 3.4 450.6 0 453.5 0 514.9 71.5"/>
        </g>
        <g>
          <polygon class="cls-1" points="64.3 507.9 64.3 525 49.7 525 0 467.2 0 450.1 14.7 450.1 64.3 507.9"/>
          <polygon class="cls-1" points="128.7 504.7 128.7 525 111.3 525 64.4 470.4 64.4 450.1 81.7 450 128.7 504.7"/>
          <polygon class="cls-1" points="193 501.6 193.1 525 173 525 128.9 473.6 128.7 450.1 148.7 449.9 193 501.6"/>
          <polygon class="cls-1" points="257.4 498.5 257.4 525 234.6 525 193.3 476.8 193.1 450.1 215.6 449.8 257.4 498.5"/>
          <polygon class="cls-1" points="321.7 495.3 321.8 525 296.3 524.9 257.7 480 257.5 450.1 282.6 449.7 321.7 495.3"/>
          <polygon class="cls-1" points="386.1 492.2 386.2 525 358 524.9 322.2 483.2 321.8 450.1 349.6 449.6 386.1 492.2"/>
          <polygon class="cls-1" points="450.4 489 450.5 525 419.6 524.9 386.6 486.5 386.2 450.1 416.6 449.5 450.4 489"/>
          <polygon class="cls-1" points="450.6 450.1 483.6 449.5 514.8 485.9 514.9 525 481.3 524.9 451 489.7 450.6 450.1"/>
        </g>
        <polygon class="cls-1" points="514.9 555 514.9 577.5 514.9 600 495.6 600 476.2 600 450.6 570.1 450.6 547.6 450.6 525.1 469.9 525.1 489.2 525.1 514.9 555"/>
        <line class="cls-1" x1="486.1" y1="449.6" x2="450.6" y2="408.2"/>
        <line class="cls-1" x1="515" y1="416.5" x2="479" y2="374.7"/>
        <g>
          <polygon class="cls-1" points="64.3 354.2 64.3 375 46.5 375 23.2 347.9 0 320.8 0 300 17.9 300 41.1 327.1 64.3 354.2"/>
          <polygon class="cls-1" points="64.4 300 82.3 300 85.8 303.3 105.9 326.6 125.8 349.8 128.7 354.1 128.7 374.7 128.7 374.7 128.7 375 125.5 375 124.7 374.9 110.8 374.9 106.7 371.2 87.2 348.4 67.7 325.7 64.4 320.9 64.4 304.2 64.4 304.1 64.4 300.3 64.4 300.3 64.4 300"/>
          <polygon class="cls-1" points="128.7 300 146.8 300 150.5 302.7 170.6 326.1 190.6 349.4 193.1 354 193.1 374.7 193.1 374.7 193.1 375 189.8 375 189.1 374.9 175 374.9 170.8 371.7 151.1 348.9 131.5 326 128.7 321 128.7 304.2 128.7 304 128.7 300.2 128.7 300.2 128.7 300"/>
          <polygon class="cls-1" points="193.1 299.9 211.2 299.9 215.2 302.1 235.4 325.6 255.5 349.1 257.5 353.9 257.5 374.7 257.4 374.7 257.4 375 254.2 375 253.4 374.9 239.3 374.9 234.8 372.3 215 349.3 195.3 326.4 193.1 321 193.1 304.2 193.1 304 193.1 300.2 193.1 300.2 193.1 299.9"/>
          <polygon class="cls-1" points="257.5 299.9 275.7 299.9 279.9 301.5 300.1 325.2 320.4 348.7 321.8 353.8 321.8 374.7 321.8 374.7 321.8 375 318.5 375 317.8 374.8 303.6 374.8 298.8 372.9 279 349.8 259.1 326.7 257.5 321.1 257.5 304.2 257.5 304 257.5 300.2 257.5 300.2 257.5 299.9"/>
          <polygon class="cls-1" points="321.9 299.9 340.2 299.9 344.5 300.9 364.9 324.7 385.2 348.3 386.2 353.7 386.2 374.7 386.2 374.7 386.2 375 382.9 375 382.1 374.8 367.9 374.8 362.8 373.5 342.9 350.3 323 327.1 321.9 321.2 321.9 304.1 321.8 304 321.8 300.1 321.9 300.1 321.9 299.9"/>
          <polygon class="cls-1" points="386.2 299.8 404.6 299.8 409.2 300.4 429.7 324.2 450.1 348 450.6 353.5 450.6 374.7 450.5 374.7 450.5 375 447.2 375 446.5 374.7 432.1 374.7 426.9 374.1 406.8 350.8 386.8 327.5 386.2 321.2 386.2 304.1 386.2 303.9 386.2 300.1 386.2 300.1 386.2 299.8"/>
          <polygon class="cls-1" points="515 347.6 494.4 323.7 473.9 299.8 450.6 299.8 450.6 300 450.6 300 450.6 303.9 450.6 304.1 450.6 327.8 470.7 351.3 490.9 374.7 510.8 374.7 511.6 375 514.9 375 514.9 374.7 515 374.7 515 347.6"/>
        </g>
        <g>
          <polygon class="cls-1" points="64.3 277.3 64.3 300 44.9 300 22.5 273.8 0 247.7 0 225 19.4 225 41.9 251.2 64.3 277.3"/>
          <polygon class="cls-1" points="64.4 225 82.6 225 83.7 225.1 106.2 251.3 128.6 277.4 128.7 278.5 128.7 299.8 128.7 299.8 128.7 300 125.5 300 125.1 299.9 109.4 299.9 86.9 273.7 64.4 247.6 64.4 246.9 64.4 229.2 64.4 229 64.4 225.2 64.4 225.2 64.4 225"/>
          <polygon class="cls-1" points="128.7 225 147 225 148 225.3 170.5 251.3 192.9 277.5 193.1 278.5 193.1 299.8 193.1 299.8 193.1 300 189.8 300 189.5 299.9 173.9 299.9 151.3 273.6 128.9 247.5 128.7 246.9 128.7 229.1 128.7 229 128.7 225.2 128.7 225.2 128.7 225"/>
          <polygon class="cls-1" points="193.1 225 211.3 225 212.3 225.4 234.7 251.4 257.2 277.5 257.5 278.5 257.5 299.8 257.4 299.8 257.4 300 254.2 300 253.8 299.9 238.3 299.9 215.7 273.5 193.3 247.4 193.1 246.8 193.1 229.1 193.1 229 193.1 225.2 193.1 225.1 193.1 225"/>
          <polygon class="cls-1" points="257.5 224.9 275.7 224.9 276.7 225.5 299 251.5 321.4 277.6 321.8 278.6 321.8 299.8 321.8 299.8 321.8 300 318.6 300 318.2 299.9 302.8 299.9 280.2 273.5 257.7 247.4 257.5 246.8 257.5 229 257.5 228.9 257.5 225.1 257.5 225.1 257.5 224.9"/>
          <polygon class="cls-1" points="321.9 224.9 340 224.9 341 225.6 363.3 251.6 385.7 277.7 386.2 278.6 386.2 299.8 386.2 299.8 386.2 300 382.9 300 382.6 299.8 367.3 299.8 344.6 273.4 322.2 247.3 321.9 246.7 321.9 229 321.8 228.9 321.8 225.1 321.9 225.1 321.9 224.9"/>
          <polygon class="cls-1" points="386.2 224.9 404.4 224.9 405.3 225.7 427.6 251.7 450 277.8 450.6 278.6 450.6 299.8 450.5 299.8 450.5 300 447.3 300 446.9 299.8 431.8 299.8 409 273.3 386.6 247.2 386.2 246.7 386.2 229 386.2 228.8 386.2 225.1 386.2 225.1 386.2 224.9"/>
          <polygon class="cls-1" points="515 278.6 491.9 251.8 468.8 224.9 450.6 224.9 450.6 225 450.6 225 450.6 228.8 450.6 228.9 450.6 246.6 473.4 273.2 496.3 299.8 511.3 299.8 511.7 300 514.9 300 514.9 299.8 515 299.8 515 278.6"/>
        </g>
        <g>
          <polygon class="cls-1" points="64.3 200.5 64.3 224.9 43.3 224.9 21.7 199.7 0 174.5 0 150 21 150 42.7 175.2 64.3 200.5"/>
          <path class="cls-1" d="M64.4,150h13.5l7.1.8,9.8,11.4h0s11.7,13.6,11.7,13.6l11.5,13.4h0s10,11.6,10,11.6l.7,8.1s0,15.9,0,15.9h-3.4s-10.4,0-10.4,0l-6.9-.8-21.5-25.1-21.5-25.1-.7-7.8v-12.1h0v-3.9h0Z"/>
          <path class="cls-1" d="M128.7,150h13.4l6.7,1.7,9.8,11.4h0s11.6,13.5,11.6,13.5l11.5,13.4h0s9.9,11.6,9.9,11.6l1.4,7.7s0,15.8,0,15.8h-3.4s-10.3,0-10.3,0l-6.5-1.6-21.4-24.9-21.4-24.9-1.4-7.5v-12h0v-3.9h0Z"/>
          <path class="cls-1" d="M193.1,150h13.4l6.4,2.5,9.7,11.3h0s11.5,13.4,11.5,13.4l11.4,13.3h0s9.8,11.5,9.8,11.5l2.1,7.3s0,15.6,0,15.7h-3.3s-10.2,0-10.2,0l-6.2-2.4-21.2-24.7-21.3-24.8-2.1-7.1v-12h0v-3.9h0Z"/>
          <path class="cls-1" d="M257.5,150h13.3l6,3.3,9.6,11.2h0s11.4,13.4,11.4,13.4l11.3,13.2h0s9.8,11.4,9.8,11.4l2.8,6.9s0,15.5,0,15.6h-3.3s-10.2,0-10.2,0l-5.9-3.2-21.1-24.6-21.1-24.6-2.7-6.7v-11.9h0v-3.8h0Z"/>
          <path class="cls-1" d="M321.9,150h13.2l5.7,4.2,9.6,11.1h0s11.4,13.3,11.4,13.3l11.3,13.1h0s9.7,11.4,9.7,11.4l3.5,6.5s0,15.4,0,15.5h-3.3c0,0-10.1,0-10.1,0l-5.5-4-20.9-24.4-21-24.4-3.4-6.3v-11.8h0v-3.8h0Z"/>
          <path class="cls-1" d="M386.2,150h13.1l5.3,5,9.5,11.1h0s11.3,13.2,11.3,13.2l11.2,13h0s9.6,11.3,9.6,11.3l4.2,6.1s0,15.3,0,15.3h-3.3c0,0-10,0-10,0l-5.2-4.9-20.8-24.2-20.9-24.3-4.1-6v-11.7h0v-3.8h0Z"/>
          <polygon class="cls-1" points="515 209.7 500.5 192.8 500.4 192.8 489.3 179.8 478.1 166.8 478.1 166.8 463.6 149.9 450.6 149.9 450.6 150 450.6 150 450.6 153.7 450.6 153.8 450.6 165.4 476.1 195.1 501.7 224.9 511.6 224.9 511.8 224.9 514.9 224.9 514.9 224.9 515 224.9 515 209.7"/>
        </g>
      </g>
    </g>
  </g>
</svg>