<svg width="21" height="21" viewBox="0 0 21 21" fill="none" xmlns="http://www.w3.org/2000/svg">
<path d="M14.5249 5.0925C13.9269 4.40959 13.5973 3.53272 13.5974 2.625H10.8936V13.475C10.8732 14.0623 10.6255 14.6187 10.2027 15.0268C9.77985 15.4349 9.21504 15.6629 8.62739 15.6625C7.38489 15.6625 6.35239 14.6475 6.35239 13.3875C6.35239 11.8825 7.80489 10.7537 9.30114 11.2175V8.4525C6.28239 8.05 3.63989 10.395 3.63989 13.3875C3.63989 16.3013 6.05489 18.375 8.61864 18.375C11.3661 18.375 13.5974 16.1438 13.5974 13.3875V7.88375C14.6938 8.67112 16.0101 9.09357 17.3599 9.09125V6.3875C17.3599 6.3875 15.7149 6.46625 14.5249 5.0925Z" fill="black"/>
</svg>
