<svg width="17" height="17" viewBox="0 0 17 17" fill="none" xmlns="http://www.w3.org/2000/svg">
<path d="M0.979248 8.50008C0.979248 4.955 0.979248 3.18166 2.08046 2.08046C3.18166 0.979248 4.95421 0.979248 8.50008 0.979248C12.0452 0.979248 13.8185 0.979248 14.9197 2.08046C16.0209 3.18166 16.0209 4.95421 16.0209 8.50008C16.0209 12.0452 16.0209 13.8185 14.9197 14.9197C13.8185 16.0209 12.046 16.0209 8.50008 16.0209C4.955 16.0209 3.18166 16.0209 2.08046 14.9197C0.979248 13.8185 0.979248 12.046 0.979248 8.50008Z" stroke="black" stroke-width="1.5" stroke-linecap="round" stroke-linejoin="round"/>
<path d="M12.8605 4.146H12.8526M12.0625 8.50016C12.0625 9.445 11.6872 10.3511 11.0191 11.0192C10.351 11.6873 9.44483 12.0627 8.5 12.0627C7.55517 12.0627 6.64903 11.6873 5.98093 11.0192C5.31283 10.3511 4.9375 9.445 4.9375 8.50016C4.9375 7.55533 5.31283 6.64919 5.98093 5.9811C6.64903 5.313 7.55517 4.93766 8.5 4.93766C9.44483 4.93766 10.351 5.313 11.0191 5.9811C11.6872 6.64919 12.0625 7.55533 12.0625 8.50016Z" stroke="black" stroke-width="1.5" stroke-linecap="round" stroke-linejoin="round"/>
</svg>
