<svg width="23" height="23" viewBox="0 0 23 23" fill="none" xmlns="http://www.w3.org/2000/svg">
<path d="M9.58342 14.3751L14.5572 11.5001L9.58342 8.62508V14.3751ZM20.6617 6.87133C20.7863 7.32175 20.8726 7.9255 20.9301 8.69216C20.9972 9.45883 21.0259 10.1201 21.0259 10.6951L21.0834 11.5001C21.0834 13.5988 20.9301 15.1417 20.6617 16.1288C20.4222 16.9913 19.8663 17.5472 19.0038 17.7867C18.5534 17.9113 17.7292 17.9976 16.4642 18.0551C15.2184 18.1222 14.078 18.1509 13.0238 18.1509L11.5001 18.2084C7.48466 18.2084 4.98341 18.0551 3.99633 17.7867C3.13383 17.5472 2.578 16.9913 2.33841 16.1288C2.21383 15.6784 2.12758 15.0747 2.07008 14.308C2.003 13.5413 1.97425 12.8801 1.97425 12.3051L1.91675 11.5001C1.91675 9.40133 2.07008 7.85841 2.33841 6.87133C2.578 6.00883 3.13383 5.453 3.99633 5.21341C4.44675 5.08883 5.27092 5.00258 6.53591 4.94508C7.78175 4.878 8.92216 4.84925 9.97633 4.84925L11.5001 4.79175C15.5155 4.79175 18.0167 4.94508 19.0038 5.21341C19.8663 5.453 20.4222 6.00883 20.6617 6.87133Z" fill="black"/>
</svg>
